<svg xmlns="http://www.w3.org/2000/svg" viewBox="31 31 450 450" role="img" aria-label="Case sensitive search icon">
  <g transform="translate(256 256) scale(1.4127) translate(-256 -256)">
    <path d="M221.195 306.998 L154.463 306.998 L143.927 337.153 L101.000 337.153 L162.304 171.619 L213.213 171.619 L274.517 337.153 L231.625 337.153 L221.195 306.998 Z M165.106 276.275 L210.446 276.275 L187.812 210.430 L165.106 276.275 Z M350.335 281.277 Q337.918 281.277 331.639 285.499 Q325.395 289.685 325.395 297.916 Q325.395 305.437 330.432 309.729 Q335.506 313.987 344.481 313.987 Q355.656 313.987 363.319 305.969 Q370.982 297.916 370.982 285.818 L370.982 281.277 L350.335 281.277 Z M411.000 266.306 L411.000 337.153 L370.982 337.153 L370.982 318.741 Q363.000 330.058 352.996 335.237 Q343.027 340.381 328.729 340.381 Q309.430 340.381 297.404 329.135 Q285.377 317.854 285.377 299.902 Q285.377 278.049 300.384 267.867 Q315.426 257.650 347.568 257.650 L370.982 257.650 L370.982 254.563 Q370.982 245.126 363.532 240.763 Q356.118 236.364 340.366 236.364 Q327.630 236.364 316.632 238.918 Q305.670 241.472 296.233 246.581 L296.233 216.319 Q309.004 213.197 321.847 211.601 Q334.725 210.004 347.568 210.004 Q381.164 210.004 396.064 223.237 Q411.000 236.470 411.000 266.306 Z" fill="#000000"/>
  </g>
</svg>
