<svg xmlns="http://www.w3.org/2000/svg" viewBox="31 31 450 450" role="img" aria-label="Question mark circle icon black, dot centered">
  <rect width="512" height="512" fill="none"/>
  <g transform="translate(256 256) scale(0.9202) translate(-256 -256)">
    <path d="M 494.00 256.00 A 238.00 238.00 0 1 0 18.00 256.00 A 238.00 238.00 0 1 0 494.00 256.00 Z M 446.00 256.00 A 190.00 190.00 0 1 0 66.00 256.00 A 190.00 190.00 0 1 0 446.00 256.00 Z" fill="#000000" fill-rule="evenodd"/>
    <path d="M 288.059 303.474 L 223.941 303.474 L 223.941 294.777 Q 223.941 280.225 229.796 268.971 Q 235.651 257.659 254.465 240.208 L 265.834 229.920 Q 275.952 220.712 280.669 212.526 Q 285.387 204.341 285.387 196.156 Q 285.387 183.764 276.861 176.773 Q 268.335 169.724 253.044 169.724 Q 238.663 169.724 221.952 175.693 Q 205.240 181.604 187.164 193.314 L 187.164 137.552 Q 208.651 130.105 226.385 126.581 Q 244.177 123.000 260.661 123.000 Q 304.032 123.000 326.768 140.678 Q 349.505 158.356 349.505 192.291 Q 349.505 209.684 342.571 223.440 Q 335.636 237.196 318.924 252.998 L 307.556 263.173 Q 295.505 274.143 291.754 280.851 Q 288.059 287.501 288.059 295.459 L 288.059 303.474 Z M 223.941 329.735 L 288.059 329.735 L 288.059 393.000 L 223.941 393.000 L 223.941 329.735 Z" fill="#000000" fill-rule="evenodd"/>
  </g>
</svg>
