<svg xmlns="http://www.w3.org/2000/svg" viewBox="31 31 450 450" role="img" aria-label="Question square icon">
  <!-- Square frame -->
  <rect x="92" y="92" width="328" height="328" rx="6"
        fill="none"
        stroke="#000000"
        stroke-width="24"
        stroke-linejoin="round"/>

  <!-- Corner dots -->
  <circle cx="126" cy="126" r="10" fill="#000000"/>
  <circle cx="386" cy="126" r="10" fill="#000000"/>
  <circle cx="126" cy="386" r="10" fill="#000000"/>
  <circle cx="386" cy="386" r="10" fill="#000000"/>

  <!-- Question mark -->
  <path d="M272.802 302.737 L218.183 302.737 L218.183 295.328 Q218.183 282.933 223.171 273.345 Q228.158 263.709 244.185 248.844 L253.869 240.080 Q262.488 232.236 266.507 225.263 Q270.526 218.291 270.526 211.318 Q270.526 200.762 263.263 194.806 Q256.000 188.802 242.975 188.802 Q230.724 188.802 216.488 193.886 Q202.253 198.922 186.855 208.897 L186.855 161.396 Q205.158 155.053 220.265 152.051 Q235.421 149.000 249.463 149.000 Q286.408 149.000 305.777 164.059 Q325.145 179.118 325.145 208.025 Q325.145 222.842 319.238 234.560 Q313.331 246.278 299.095 259.739 L289.411 268.406 Q279.145 277.752 275.949 283.465 Q272.802 289.131 272.802 295.909 L272.802 302.737 Z M218.183 325.107 L272.802 325.107 L272.802 379.000 L218.183 379.000 L218.183 325.107 Z" fill="#000000" fill-rule="evenodd"/>
</svg>
