<svg xmlns="http://www.w3.org/2000/svg" viewBox="31 31 450 450" role="img" aria-label="Regular expression search icon">
  <path d="M110.630 377.817 L70.922 377.817 Q50.491 344.819 40.745 315.113 Q31.000 285.364 31.000 256.128 Q31.000 226.850 40.788 196.887 Q50.619 166.882 70.922 134.183 L110.630 134.183 Q93.533 165.813 84.984 196.075 Q76.435 226.337 76.435 255.872 Q76.435 285.364 84.898 315.711 Q93.362 346.016 110.630 377.817 Z M160.425 290.066 L208.510 290.066 L208.510 341.742 L160.425 341.742 L160.425 290.066 Z M374.020 179.191 L329.953 202.272 L374.020 225.524 L363.848 244.374 L319.395 219.797 L319.395 265.745 L296.656 265.745 L296.656 219.797 L252.076 244.374 L241.903 225.524 L286.526 202.272 L241.903 179.191 L252.076 160.342 L296.656 184.663 L296.656 138.714 L319.395 138.714 L319.395 184.663 L363.848 160.342 L374.020 179.191 Z M401.413 377.817 Q418.510 346.016 427.059 315.711 Q435.607 285.364 435.607 255.872 Q435.607 226.337 427.059 196.075 Q418.510 165.813 401.413 134.183 L441.078 134.183 Q461.381 166.882 471.169 196.887 Q481.000 226.850 481.000 256.128 Q481.000 285.364 471.255 315.113 Q461.509 344.819 441.078 377.817 L401.413 377.817 Z" fill="#000000" fill-rule="evenodd"/>
</svg>
