<svg xmlns="http://www.w3.org/2000/svg" viewBox="31 31 450 450" role="img" aria-label="Settings icon">
  <g transform="translate(256 256) scale(1.2209) translate(-256 -256)">
    <path d="M217.19 129.84 L232.61 91.66 L279.39 91.66 L294.81 129.84 L317.77 139.34 L355.67 123.25 L388.75 156.33 L372.66 194.23 L382.16 217.19 L420.34 232.61 L420.34 279.39 L382.16 294.81 L372.66 317.77 L388.75 355.67 L355.67 388.75 L317.77 372.66 L294.81 382.16 L279.39 420.34 L232.61 420.34 L217.19 382.16 L194.23 372.66 L156.33 388.75 L123.25 355.67 L139.34 317.77 L129.84 294.81 L91.66 279.39 L91.66 232.61 L129.84 217.19 L139.34 194.23 L123.25 156.33 L156.33 123.25 L194.23 139.34 Z"
          fill="none" stroke="#000000" stroke-width="30"
          stroke-linecap="round" stroke-linejoin="round"/>
    <circle cx="256" cy="256" r="58"
            fill="none" stroke="#000000" stroke-width="30"/>
  </g>
</svg>
