<svg xmlns="http://www.w3.org/2000/svg" viewBox="31 31 450 450" role="img" aria-label="Whole word search icon">
  <g transform="translate(256 256) scale(1.3681) translate(-256 -234.577)">
    <path d="M190.948 212.566 Q181.209 212.566 176.284 215.877 Q171.387 219.161 171.387 225.616 Q171.387 231.515 175.338 234.882 Q179.317 238.221 186.357 238.221 Q195.122 238.221 201.132 231.933 Q207.142 225.616 207.142 216.128 L207.142 212.566 L190.948 212.566 Z M238.529 200.824 L238.529 256.391 L207.142 256.391 L207.142 241.950 Q200.882 250.826 193.035 254.888 Q185.216 258.923 174.002 258.923 Q158.866 258.923 149.433 250.103 Q140.000 241.254 140.000 227.175 Q140.000 210.034 151.770 202.048 Q163.568 194.035 188.778 194.035 L207.142 194.035 L207.142 191.614 Q207.142 184.212 201.299 180.790 Q195.484 177.340 183.129 177.340 Q173.140 177.340 164.514 179.343 Q155.916 181.346 148.515 185.353 L148.515 161.618 Q158.532 159.170 168.604 157.917 Q178.705 156.665 188.778 156.665 Q215.128 156.665 226.815 167.044 Q238.529 177.423 238.529 200.824 Z M319.299 236.301 Q329.288 236.301 334.547 229.011 Q339.834 221.693 339.834 207.780 Q339.834 193.868 334.547 186.577 Q329.288 179.259 319.299 179.259 Q309.310 179.259 303.939 186.605 Q298.597 193.951 298.597 207.780 Q298.597 221.609 303.939 228.955 Q309.310 236.301 319.299 236.301 Z M298.597 173.249 Q305.052 164.735 312.871 160.700 Q320.690 156.665 330.874 156.665 Q348.877 156.665 360.425 170.968 Q372.000 185.270 372.000 207.780 Q372.000 230.291 360.425 244.621 Q348.877 258.923 330.874 258.923 Q320.690 258.923 312.871 254.888 Q305.052 250.826 298.597 242.311 L298.597 256.391 L267.488 256.391 L267.488 121.077 L298.597 121.077 L298.597 173.249 Z" fill="#000000" fill-rule="evenodd"/>
    <path d="M112 286 V332 H400 V286"
          fill="none" stroke="#000000" stroke-width="32"
          stroke-linecap="round" stroke-linejoin="round"/>
  </g>
</svg>
